# xmcd
#
# Track frame offsets: 
#        150
#        16465
#        30386
#        49170
#        63000
#        77956
#        90983
#        110065
#        126223
#        137387
#        148406
#        165087
#        177604
#        203083
#
# Disc length: 2907 seconds
#
# Revision: 0
# Processed by: cddbd v1.5.1PL2 Copyright (c) Steve Scherf et al.
# Submitted via: ExactAudioCopy v0.90b4
#
DISCID=b80b590e
DTITLE=The Strange Tones - Crime-A-Billy
DYEAR=2006
DGENRE=Blues
TTITLE0=Lock Me up
TTITLE1=Actual man
TTITLE2=Something Stinks
TTITLE3=Ramble
TTITLE4=Sweet Spot
TTITLE5=Did My Time
TTITLE6=Poster Child
TTITLE7=Pinto Squire
TTITLE8=Crime-A-Billy
TTITLE9=Wanted
TTITLE10=Burning Heart
TTITLE11=Red State
TTITLE12=I Idolize You
TTITLE13=The Whip
EXTD=
EXTT0=
EXTT1=
EXTT2=
EXTT3=
EXTT4=
EXTT5=
EXTT6=
EXTT7=
EXTT8=
EXTT9=
EXTT10=
EXTT11=
EXTT12=
EXTT13=
PLAYORDER=
